<svg xmlns="http://www.w3.org/2000/svg">
  <defs>
  <!-- astro icon -->
  <symbol id="astro" viewBox="0 0 85 107">
    <path
      d="M27.5894 91.1365C22.7555 86.7178 21.3444 77.4335 23.3583 70.7072C26.8503 74.948 31.6888 76.2914 36.7005 77.0497C44.4375 78.2199 52.0359 77.7822 59.2232 74.2459C60.0454 73.841 60.8052 73.3027 61.7036 72.7574C62.378 74.714 62.5535 76.6892 62.318 78.6996C61.7452 83.5957 59.3086 87.3778 55.4332 90.2448C53.8835 91.3916 52.2437 92.4167 50.6432 93.4979C45.7262 96.8213 44.3959 100.718 46.2435 106.386C46.2874 106.525 46.3267 106.663 46.426 107C43.9155 105.876 42.0817 104.24 40.6845 102.089C39.2087 99.8193 38.5066 97.3081 38.4696 94.5909C38.4511 93.2686 38.4511 91.9345 38.2733 90.6309C37.8391 87.4527 36.3471 86.0297 33.5364 85.9478C30.6518 85.8636 28.37 87.6469 27.7649 90.4554C27.7187 90.6707 27.6517 90.8837 27.5847 91.1341L27.5894 91.1365Z"
      fill="#F041FF" />
    <path
      d="M0 69.5866C0 69.5866 14.3139 62.6137 28.6678 62.6137L39.4901 29.1204C39.8953 27.5007 41.0783 26.3999 42.4139 26.3999C43.7495 26.3999 44.9325 27.5007 45.3377 29.1204L56.1601 62.6137C73.1601 62.6137 84.8278 69.5866 84.8278 69.5866C84.8278 69.5866 60.5145 3.35233 60.467 3.21944C59.7692 1.2612 58.5911 0 57.0029 0H27.8274C26.2392 0 25.1087 1.2612 24.3634 3.21944C24.3108 3.34983 0 69.5866 0 69.5866Z"
      fill="currentColor" />
  </symbol>

  <!-- javascript icon -->
  <symbol id="javascript" viewBox="0 0 630 630">
    <rect width="630" height="630" fill="#f7df1e" />
    <path fill="black"
      d="m423.2 492.19c12.69 20.72 29.2 35.95 58.4 35.95 24.53 0 40.2-12.26 40.2-29.2 0-20.3-16.1-27.49-43.1-39.3l-14.8-6.35c-42.72-18.2-71.1-41-71.1-89.2 0-44.4 33.83-78.2 86.7-78.2 37.64 0 64.7 13.1 84.2 47.4l-46.1 29.6c-10.15-18.2-21.1-25.37-38.1-25.37-17.34 0-28.33 11-28.33 25.37 0 17.76 11 24.95 36.4 35.95l14.8 6.34c50.3 21.57 78.7 43.56 78.7 93 0 53.3-41.87 82.5-98.1 82.5-54.98 0-90.5-26.2-107.88-60.54zm-209.13 5.13c9.3 16.5 17.76 30.45 38.1 30.45 19.45 0 31.72-7.61 31.72-37.2v-201.3h59.2v202.1c0 61.3-35.94 89.2-88.4 89.2-47.4 0-74.85-24.53-88.81-54.075z" />
  </symbol>

  <!-- typescript icon -->
  <symbol id="typescript" fill="none" viewBox="0 0 512 512">
    <rect fill="#3178c6" height="512" rx="50" width="512" />
    <rect fill="#3178c6" height="512" rx="50" width="512" />
    <path clip-rule="evenodd" fill="#fff" fill-rule="evenodd"
      d="m316.939 407.424v50.061c8.138 4.172 17.763 7.3 28.875 9.386s22.823 3.129 35.135 3.129c11.999 0 23.397-1.147 34.196-3.442 10.799-2.294 20.268-6.075 28.406-11.342 8.138-5.266 14.581-12.15 19.328-20.65s7.121-19.007 7.121-31.522c0-9.074-1.356-17.026-4.069-23.857s-6.625-12.906-11.738-18.225c-5.112-5.319-11.242-10.091-18.389-14.315s-15.207-8.213-24.18-11.967c-6.573-2.712-12.468-5.345-17.685-7.9-5.217-2.556-9.651-5.163-13.303-7.822-3.652-2.66-6.469-5.476-8.451-8.448-1.982-2.973-2.974-6.336-2.974-10.091 0-3.441.887-6.544 2.661-9.308s4.278-5.136 7.512-7.118c3.235-1.981 7.199-3.52 11.894-4.615 4.696-1.095 9.912-1.642 15.651-1.642 4.173 0 8.581.313 13.224.938 4.643.626 9.312 1.591 14.008 2.894 4.695 1.304 9.259 2.947 13.694 4.928 4.434 1.982 8.529 4.276 12.285 6.884v-46.776c-7.616-2.92-15.937-5.084-24.962-6.492s-19.381-2.112-31.066-2.112c-11.895 0-23.163 1.278-33.805 3.833s-20.006 6.544-28.093 11.967c-8.086 5.424-14.476 12.333-19.171 20.729-4.695 8.395-7.043 18.433-7.043 30.114 0 14.914 4.304 27.638 12.912 38.172 8.607 10.533 21.675 19.45 39.204 26.751 6.886 2.816 13.303 5.579 19.25 8.291s11.086 5.528 15.415 8.448c4.33 2.92 7.747 6.101 10.252 9.543 2.504 3.441 3.756 7.352 3.756 11.733 0 3.233-.783 6.231-2.348 8.995s-3.939 5.162-7.121 7.196-7.147 3.624-11.894 4.771c-4.748 1.148-10.303 1.721-16.668 1.721-10.851 0-21.597-1.903-32.24-5.71-10.642-3.806-20.502-9.516-29.579-17.13zm-84.159-123.342h64.22v-41.082h-179v41.082h63.906v182.918h50.874z" />
  </symbol>

  <!-- tailwind icon -->
  <symbol id="tailwind" viewBox="0 0 47 40" fill="none">
    <path fill="#6366f1"
      d="M23.5 6.5C17.5 6.5 13.75 9.5 12.25 15.5C14.5 12.5 17.125 11.375 20.125 12.125C21.8367 12.5529 23.0601 13.7947 24.4142 15.1692C26.6202 17.4084 29.1734 20 34.75 20C40.75 20 44.5 17 46 11C43.75 14 41.125 15.125 38.125 14.375C36.4133 13.9471 35.1899 12.7053 33.8357 11.3308C31.6297 9.09158 29.0766 6.5 23.5 6.5ZM12.25 20C6.25 20 2.5 23 1 29C3.25 26 5.875 24.875 8.875 25.625C10.5867 26.0529 11.8101 27.2947 13.1642 28.6693C15.3702 30.9084 17.9234 33.5 23.5 33.5C29.5 33.5 33.25 30.5 34.75 24.5C32.5 27.5 29.875 28.625 26.875 27.875C25.1633 27.4471 23.9399 26.2053 22.5858 24.8307C20.3798 22.5916 17.8266 20 12.25 20Z" />
  </symbol>

  <!-- react icon -->
  <symbol id="react" viewBox="0 0 30 30">   <path fill="#98CCFD" stroke="none" d="M 10.679688 4.1816406 C 10.068687 4.1816406 9.502 4.3184219 9 4.6074219 C 7.4311297 5.5132122 6.8339651 7.7205462 7.1503906 10.46875 C 4.6127006 11.568833 3 13.188667 3 15 C 3 16.811333 4.6127006 18.431167 7.1503906 19.53125 C 6.8341285 22.279346 7.4311297 24.486788 9 25.392578 C 9.501 25.681578 10.067687 25.818359 10.679688 25.818359 C 11.982314 25.818359 13.48785 25.164589 15 24.042969 C 16.512282 25.164589 18.01964 25.818359 19.322266 25.818359 C 19.933266 25.818359 20.499953 25.681578 21.001953 25.392578 C 22.570814 24.486793 23.167976 22.279432 22.851562 19.53125 C 25.388297 18.431178 27 16.81094 27 15 C 27 13.188667 25.387299 11.568833 22.849609 10.46875 C 23.165872 7.7206538 22.56887 5.5132122 21 4.6074219 C 20.499 4.3174219 19.932312 4.1816406 19.320312 4.1816406 C 18.017686 4.1816406 16.51215 4.8354109 15 5.9570312 C 13.487763 4.8354109 11.981863 4.1816406 10.679688 4.1816406 z M 10.679688 5.9316406 C 11.461321 5.9316406 12.49496 6.3472486 13.617188 7.1171875 C 12.95737 7.7398717 12.311153 8.4479321 11.689453 9.2363281 C 10.681079 9.3809166 9.7303472 9.5916908 8.8496094 9.8554688 C 8.8448793 9.7943902 8.8336776 9.7303008 8.8300781 9.6699219 C 8.7230781 7.8899219 9.114 6.5630469 9.875 6.1230469 C 10.1 5.9930469 10.362688 5.9316406 10.679688 5.9316406 z M 19.320312 5.9316406 C 19.636312 5.9316406 19.9 5.9930469 20.125 6.1230469 C 20.886 6.5620469 21.276922 7.8899219 21.169922 9.6699219 C 21.166295 9.7303008 21.155145 9.7943902 21.150391 9.8554688 C 20.2691 9.5915252 19.317669 9.3809265 18.308594 9.2363281 C 17.686902 8.4480417 17.042616 7.7397993 16.382812 7.1171875 C 17.504962 6.3473772 18.539083 5.9316406 19.320312 5.9316406 z M 15 8.2285156 C 15.27108 8.4752506 15.540266 8.7360345 15.8125 9.0214844 C 15.542718 9.012422 15.274373 9 15 9 C 14.726286 9 14.458598 9.0124652 14.189453 9.0214844 C 14.461446 8.7363308 14.729174 8.4750167 15 8.2285156 z M 15 10.75 C 15.828688 10.75 16.614128 10.796321 17.359375 10.876953 C 17.813861 11.494697 18.261774 12.147811 18.681641 12.875 C 19.084074 13.572033 19.439938 14.285488 19.753906 15 C 19.439896 15.714942 19.084316 16.429502 18.681641 17.126953 C 18.263078 17.852044 17.816279 18.500949 17.363281 19.117188 C 16.591711 19.201607 15.800219 19.25 15 19.25 C 14.171312 19.25 13.385872 19.203679 12.640625 19.123047 C 12.186139 18.505303 11.738226 17.854142 11.318359 17.126953 C 10.915684 16.429502 10.560194 15.714942 10.246094 15 C 10.559972 14.285488 10.915926 13.572033 11.318359 12.875 C 11.737083 12.149909 12.183612 11.499051 12.636719 10.882812 C 13.408289 10.798393 14.199781 10.75 15 10.75 z M 19.746094 11.291016 C 20.142841 11.386804 20.524253 11.490209 20.882812 11.605469 C 20.801579 11.97252 20.702235 12.346608 20.589844 12.724609 C 20.461164 12.483141 20.336375 12.240903 20.197266 12 C 20.054139 11.752196 19.895244 11.529558 19.746094 11.291016 z M 10.251953 11.292969 C 10.103305 11.530776 9.9454023 11.752991 9.8027344 12 C 9.6636666 12.240944 9.5387971 12.483106 9.4101562 12.724609 C 9.29751 12.345829 9.1965499 11.971295 9.1152344 11.603516 C 9.4803698 11.48815 9.86083 11.385986 10.251953 11.292969 z M 7.46875 12.246094 C 7.6794464 13.135714 7.9717297 14.057918 8.3476562 14.998047 C 7.9725263 15.935943 7.6814729 16.856453 7.4707031 17.744141 C 5.7292327 16.903203 4.75 15.856373 4.75 15 C 4.75 14.121 5.701875 13.119266 7.296875 12.322266 C 7.3513169 12.295031 7.4131225 12.272692 7.46875 12.246094 z M 22.529297 12.255859 C 24.270767 13.096797 25.25 14.143627 25.25 15 C 25.25 15.879 24.298125 16.880734 22.703125 17.677734 C 22.648683 17.704969 22.586877 17.727308 22.53125 17.753906 C 22.32043 16.863764 22.030541 15.940699 21.654297 15 C 22.028977 14.062913 22.318703 13.142804 22.529297 12.255859 z M 15 13 C 13.895 13 13 13.895 13 15 C 13 16.105 13.895 17 15 17 C 16.105 17 17 16.105 17 15 C 17 13.895 16.105 13 15 13 z M 9.4101562 17.275391 C 9.5388794 17.516948 9.6655262 17.759008 9.8046875 18 C 9.9476585 18.247625 10.104915 18.470608 10.253906 18.708984 C 9.857159 18.613196 9.4757466 18.509791 9.1171875 18.394531 C 9.1984813 18.02725 9.2976676 17.653633 9.4101562 17.275391 z M 20.589844 17.277344 C 20.702364 17.655759 20.803517 18.02905 20.884766 18.396484 C 20.51963 18.51185 20.13917 18.614014 19.748047 18.707031 C 19.896695 18.469224 20.054598 18.247009 20.197266 18 C 20.336044 17.759557 20.461449 17.518344 20.589844 17.277344 z M 8.8496094 20.144531 C 9.7309004 20.408475 10.682331 20.619073 11.691406 20.763672 C 12.313288 21.552345 12.957085 22.261935 13.617188 22.884766 C 12.495042 23.654481 11.461272 24.070312 10.679688 24.070312 C 10.363687 24.070312 10.1 24.006953 9.875 23.876953 C 9.114 23.437953 8.7230781 22.112031 8.8300781 20.332031 C 8.8337424 20.271023 8.8447938 20.206253 8.8496094 20.144531 z M 21.150391 20.144531 C 21.155182 20.206253 21.166285 20.271023 21.169922 20.332031 C 21.276922 22.112031 20.886 23.436953 20.125 23.876953 C 19.9 24.006953 19.637312 24.070313 19.320312 24.070312 C 18.538728 24.070312 17.504958 23.654609 16.382812 22.884766 C 17.042964 22.261863 17.688542 21.552454 18.310547 20.763672 C 19.318921 20.619083 20.269653 20.408309 21.150391 20.144531 z M 14.1875 20.978516 C 14.457282 20.987578 14.725627 21 15 21 C 15.274373 21 15.542718 20.987578 15.8125 20.978516 C 15.540266 21.263964 15.27108 21.524765 15 21.771484 C 14.72892 21.524749 14.459734 21.263966 14.1875 20.978516 z"/></symbol>
  <symbol id="node" viewBox="0 0 48 48">
<path fill="#21a366" d="M24.007,45.419c-0.574,0-1.143-0.15-1.646-0.44l-5.24-3.103c-0.783-0.438-0.401-0.593-0.143-0.682	c1.044-0.365,1.255-0.448,2.369-1.081c0.117-0.067,0.27-0.043,0.39,0.028l4.026,2.389c0.145,0.079,0.352,0.079,0.486,0l15.697-9.061	c0.145-0.083,0.24-0.251,0.24-0.424V14.932c0-0.181-0.094-0.342-0.243-0.432L24.253,5.446c-0.145-0.086-0.338-0.086-0.483,0	L8.082,14.499c-0.152,0.086-0.249,0.255-0.249,0.428v18.114c0,0.173,0.094,0.338,0.244,0.42l4.299,2.483	c2.334,1.167,3.76-0.208,3.76-1.591V16.476c0-0.255,0.2-0.452,0.456-0.452h1.988c0.248,0,0.452,0.196,0.452,0.452v17.886	c0,3.112-1.697,4.9-4.648,4.9c-0.908,0-1.623,0-3.619-0.982l-4.118-2.373C5.629,35.317,5,34.216,5,33.042V14.928	c0-1.179,0.629-2.279,1.646-2.861L22.36,3.002c0.994-0.562,2.314-0.562,3.301,0l15.694,9.069C42.367,12.656,43,13.753,43,14.932	v18.114c0,1.175-0.633,2.271-1.646,2.861L25.66,44.971c-0.503,0.291-1.073,0.44-1.654,0.44"/><path fill="#21a366" d="M28.856,32.937c-6.868,0-8.308-3.153-8.308-5.797c0-0.251,0.203-0.452,0.455-0.452h2.028	c0.224,0,0.413,0.163,0.448,0.384c0.306,2.066,1.218,3.108,5.371,3.108c3.308,0,4.715-0.747,4.715-2.502	c0-1.01-0.401-1.76-5.54-2.263c-4.299-0.424-6.955-1.371-6.955-4.809c0-3.167,2.672-5.053,7.147-5.053	c5.026,0,7.517,1.745,7.831,5.493c0.012,0.13-0.035,0.255-0.122,0.35c-0.086,0.09-0.208,0.145-0.334,0.145h-2.039	c-0.212,0-0.397-0.149-0.44-0.354c-0.491-2.173-1.678-2.868-4.904-2.868c-3.611,0-4.031,1.257-4.031,2.2	c0,1.143,0.495,1.477,5.367,2.122c4.825,0.64,7.116,1.544,7.116,4.935c0,3.418-2.853,5.379-7.827,5.379"/>
  </symbol>
</defs>
</svg>